<svg xmlns="http://www.w3.org/2000/svg" xmlns:xlink="http://www.w3.org/1999/xlink" width="180" zoomAndPan="magnify" viewBox="0 0 135 74.999997" height="100" preserveAspectRatio="xMidYMid meet" version="1.2"><defs><clipPath id="2167ff9344"><path d="M 28 23.015625 L 48.851562 23.015625 L 48.851562 55 L 28 55 Z M 28 23.015625 "/></clipPath><clipPath id="acfcf4729b"><path d="M 17.351562 24 L 37 24 L 37 55 L 17.351562 55 Z M 17.351562 24 "/></clipPath></defs><g id="b916d7c4d3"><g clip-rule="nonzero" clip-path="url(#2167ff9344)"><path style=" stroke:none;fill-rule:nonzero;fill:#ff914d;fill-opacity:1;" d="M 48.453125 39.125 C 48.453125 40.582031 47.789062 41.890625 46.75 42.753906 L 36.089844 53.417969 C 34.242188 55.265625 31.25 55.265625 29.40625 53.417969 C 29.125 53.136719 28.886719 52.832031 28.691406 52.503906 L 38.4375 42.753906 C 39.476562 41.890625 40.136719 40.582031 40.136719 39.125 C 40.136719 37.605469 39.421875 36.261719 38.308594 35.398438 L 28.691406 25.777344 C 28.882812 25.449219 29.121094 25.144531 29.40625 24.863281 C 31.25 23.015625 34.242188 23.015625 36.089844 24.863281 L 46.625 35.398438 C 47.734375 36.261719 48.453125 37.605469 48.453125 39.125 "/></g><g clip-rule="nonzero" clip-path="url(#acfcf4729b)"><path style=" stroke:none;fill-rule:nonzero;fill:#fc4c05;fill-opacity:1;" d="M 35.546875 36.042969 L 24.828125 25.328125 C 24.007812 24.503906 22.914062 24.050781 21.75 24.050781 C 20.585938 24.050781 19.492188 24.503906 18.671875 25.328125 C 17.847656 26.152344 17.394531 27.246094 17.394531 28.40625 C 17.394531 29.570312 17.847656 30.664062 18.671875 31.488281 L 26.304688 39.121094 L 18.632812 46.792969 C 17.8125 47.617188 17.359375 48.710938 17.359375 49.871094 C 17.359375 51.035156 17.8125 52.128906 18.632812 52.953125 C 19.457031 53.777344 20.550781 54.226562 21.714844 54.226562 C 22.878906 54.226562 23.972656 53.777344 24.792969 52.953125 L 35.546875 42.203125 C 36.367188 41.378906 36.820312 40.285156 36.820312 39.121094 C 36.820312 37.957031 36.367188 36.863281 35.546875 36.042969 "/></g><g style="fill:#0a0a0a;fill-opacity:1;"><g transform="translate(51.70532, 44.178368)"><path style="stroke:none" d="M 2.5625 -11.6875 C 2.101562 -11.6875 1.742188 -11.816406 1.484375 -12.078125 C 1.234375 -12.347656 1.109375 -12.675781 1.109375 -13.0625 C 1.109375 -13.425781 1.234375 -13.742188 1.484375 -14.015625 C 1.742188 -14.285156 2.109375 -14.421875 2.578125 -14.421875 C 3.054688 -14.421875 3.425781 -14.285156 3.6875 -14.015625 C 3.945312 -13.742188 4.078125 -13.425781 4.078125 -13.0625 C 4.078125 -12.675781 3.945312 -12.347656 3.6875 -12.078125 C 3.425781 -11.816406 3.050781 -11.6875 2.5625 -11.6875 Z M 3.78125 0 L 1.390625 0 L 1.390625 -10.125 L 3.78125 -10.125 Z M 3.78125 0 "/></g></g><g style="fill:#0a0a0a;fill-opacity:1;"><g transform="translate(56.429608, 44.178368)"><path style="stroke:none" d="M 3.78125 0 L 1.390625 0 L 1.390625 -10.125 L 3.65625 -10.125 L 3.65625 -8.546875 C 3.851562 -8.910156 4.125 -9.234375 4.46875 -9.515625 C 4.8125 -9.796875 5.207031 -10.015625 5.65625 -10.171875 C 6.113281 -10.335938 6.597656 -10.421875 7.109375 -10.421875 C 8.472656 -10.421875 9.492188 -9.988281 10.171875 -9.125 C 10.847656 -8.257812 11.1875 -7.035156 11.1875 -5.453125 L 11.1875 0 L 8.796875 0 L 8.796875 -5.40625 C 8.796875 -6.40625 8.582031 -7.125 8.15625 -7.5625 C 7.738281 -8.007812 7.171875 -8.234375 6.453125 -8.234375 C 5.984375 -8.234375 5.546875 -8.113281 5.140625 -7.875 C 4.734375 -7.632812 4.40625 -7.285156 4.15625 -6.828125 C 3.90625 -6.378906 3.78125 -5.828125 3.78125 -5.171875 Z M 3.78125 0 "/></g></g><g style="fill:#0a0a0a;fill-opacity:1;"><g transform="translate(68.487344, 44.178368)"><path style="stroke:none" d="M 5.90625 0.3125 C 5.144531 0.3125 4.445312 0.171875 3.8125 -0.109375 C 3.175781 -0.390625 2.625 -0.773438 2.15625 -1.265625 C 1.6875 -1.753906 1.320312 -2.320312 1.0625 -2.96875 C 0.800781 -3.625 0.671875 -4.320312 0.671875 -5.0625 C 0.671875 -5.789062 0.800781 -6.476562 1.0625 -7.125 C 1.320312 -7.769531 1.6875 -8.34375 2.15625 -8.84375 C 2.625 -9.34375 3.175781 -9.726562 3.8125 -10 C 4.445312 -10.28125 5.144531 -10.421875 5.90625 -10.421875 C 6.78125 -10.421875 7.554688 -10.25 8.234375 -9.90625 C 8.921875 -9.570312 9.492188 -9.113281 9.953125 -8.53125 C 10.421875 -7.945312 10.75 -7.285156 10.9375 -6.546875 L 8.515625 -6.546875 C 8.285156 -7.109375 7.9375 -7.523438 7.46875 -7.796875 C 7.007812 -8.066406 6.492188 -8.203125 5.921875 -8.203125 C 5.546875 -8.203125 5.1875 -8.128906 4.84375 -7.984375 C 4.507812 -7.847656 4.203125 -7.644531 3.921875 -7.375 C 3.648438 -7.113281 3.4375 -6.785156 3.28125 -6.390625 C 3.125 -6.003906 3.046875 -5.5625 3.046875 -5.0625 C 3.046875 -4.5625 3.125 -4.113281 3.28125 -3.71875 C 3.4375 -3.332031 3.648438 -3.003906 3.921875 -2.734375 C 4.203125 -2.460938 4.515625 -2.253906 4.859375 -2.109375 C 5.203125 -1.972656 5.554688 -1.90625 5.921875 -1.90625 C 6.492188 -1.90625 7.007812 -2.046875 7.46875 -2.328125 C 7.9375 -2.609375 8.285156 -3.066406 8.515625 -3.703125 L 10.9375 -3.703125 C 10.757812 -2.921875 10.4375 -2.226562 9.96875 -1.625 C 9.507812 -1.019531 8.929688 -0.546875 8.234375 -0.203125 C 7.546875 0.140625 6.769531 0.3125 5.90625 0.3125 Z M 5.90625 0.3125 "/></g></g><g style="fill:#0a0a0a;fill-opacity:1;"><g transform="translate(79.511507, 44.178368)"><path style="stroke:none" d="M 5.9375 0.3125 C 5.269531 0.3125 4.644531 0.21875 4.0625 0.03125 C 3.488281 -0.15625 2.984375 -0.445312 2.546875 -0.84375 C 2.117188 -1.25 1.785156 -1.769531 1.546875 -2.40625 C 1.304688 -3.039062 1.1875 -3.8125 1.1875 -4.71875 L 1.1875 -10.125 L 3.546875 -10.125 L 3.546875 -4.78125 C 3.546875 -3.851562 3.742188 -3.140625 4.140625 -2.640625 C 4.546875 -2.148438 5.144531 -1.90625 5.9375 -1.90625 C 6.738281 -1.90625 7.332031 -2.148438 7.71875 -2.640625 C 8.113281 -3.140625 8.3125 -3.851562 8.3125 -4.78125 L 8.3125 -10.125 L 10.6875 -10.125 L 10.6875 -4.71875 C 10.6875 -3.8125 10.566406 -3.039062 10.328125 -2.40625 C 10.085938 -1.769531 9.75 -1.25 9.3125 -0.84375 C 8.882812 -0.445312 8.382812 -0.15625 7.8125 0.03125 C 7.238281 0.21875 6.613281 0.3125 5.9375 0.3125 Z M 5.9375 0.3125 "/></g></g><g style="fill:#0a0a0a;fill-opacity:1;"><g transform="translate(90.939256, 44.178368)"><path style="stroke:none" d="M 6 0.3125 C 5.226562 0.3125 4.515625 0.175781 3.859375 -0.09375 C 3.210938 -0.375 2.648438 -0.757812 2.171875 -1.25 C 1.703125 -1.75 1.332031 -2.320312 1.0625 -2.96875 C 0.800781 -3.625 0.671875 -4.320312 0.671875 -5.0625 C 0.671875 -5.800781 0.800781 -6.492188 1.0625 -7.140625 C 1.332031 -7.785156 1.703125 -8.351562 2.171875 -8.84375 C 2.648438 -9.34375 3.210938 -9.726562 3.859375 -10 C 4.515625 -10.28125 5.226562 -10.421875 6 -10.421875 C 6.78125 -10.421875 7.492188 -10.28125 8.140625 -10 C 8.796875 -9.726562 9.363281 -9.34375 9.84375 -8.84375 C 10.320312 -8.351562 10.691406 -7.785156 10.953125 -7.140625 C 11.210938 -6.492188 11.34375 -5.800781 11.34375 -5.0625 C 11.34375 -4.3125 11.210938 -3.613281 10.953125 -2.96875 C 10.691406 -2.320312 10.320312 -1.75 9.84375 -1.25 C 9.363281 -0.757812 8.796875 -0.375 8.140625 -0.09375 C 7.492188 0.175781 6.78125 0.3125 6 0.3125 Z M 6.015625 -1.90625 C 6.585938 -1.90625 7.09375 -2.039062 7.53125 -2.3125 C 7.976562 -2.582031 8.332031 -2.953125 8.59375 -3.421875 C 8.851562 -3.898438 8.984375 -4.445312 8.984375 -5.0625 C 8.984375 -5.664062 8.851562 -6.207031 8.59375 -6.6875 C 8.332031 -7.164062 7.976562 -7.539062 7.53125 -7.8125 C 7.09375 -8.082031 6.585938 -8.21875 6.015625 -8.21875 C 5.453125 -8.21875 4.941406 -8.082031 4.484375 -7.8125 C 4.035156 -7.539062 3.679688 -7.164062 3.421875 -6.6875 C 3.171875 -6.207031 3.046875 -5.664062 3.046875 -5.0625 C 3.046875 -4.445312 3.171875 -3.898438 3.421875 -3.421875 C 3.679688 -2.953125 4.035156 -2.582031 4.484375 -2.3125 C 4.941406 -2.039062 5.453125 -1.90625 6.015625 -1.90625 Z M 6.015625 -1.90625 "/></g></g><g style="fill:#0a0a0a;fill-opacity:1;"><g transform="translate(102.524501, 44.178368)"><path style="stroke:none" d="M 3.78125 0 L 1.390625 0 L 1.390625 -10.125 L 3.6875 -10.125 L 3.6875 -8.28125 C 3.914062 -8.84375 4.257812 -9.289062 4.71875 -9.625 C 5.175781 -9.957031 5.734375 -10.125 6.390625 -10.125 L 7.484375 -10.125 L 7.484375 -8.078125 L 6.53125 -8.078125 C 5.976562 -8.078125 5.492188 -7.941406 5.078125 -7.671875 C 4.671875 -7.410156 4.351562 -7.03125 4.125 -6.53125 C 3.894531 -6.03125 3.78125 -5.421875 3.78125 -4.703125 Z M 3.78125 0 "/></g></g><g style="fill:#0a0a0a;fill-opacity:1;"><g transform="translate(109.867175, 44.178368)"><path style="stroke:none" d="M 5.4375 0.3125 C 4.757812 0.3125 4.128906 0.175781 3.546875 -0.09375 C 2.960938 -0.375 2.457031 -0.757812 2.03125 -1.25 C 1.601562 -1.75 1.269531 -2.320312 1.03125 -2.96875 C 0.789062 -3.625 0.671875 -4.320312 0.671875 -5.0625 C 0.671875 -5.800781 0.789062 -6.492188 1.03125 -7.140625 C 1.269531 -7.785156 1.601562 -8.351562 2.03125 -8.84375 C 2.46875 -9.34375 2.972656 -9.726562 3.546875 -10 C 4.128906 -10.28125 4.757812 -10.421875 5.4375 -10.421875 C 6.257812 -10.421875 6.992188 -10.238281 7.640625 -9.875 C 8.285156 -9.519531 8.765625 -9.03125 9.078125 -8.40625 L 9.078125 -10.125 L 11.34375 -10.125 L 11.34375 0 L 9.078125 0 L 9.078125 -1.703125 C 8.753906 -1.078125 8.269531 -0.582031 7.625 -0.21875 C 6.988281 0.132812 6.257812 0.3125 5.4375 0.3125 Z M 6.015625 -1.90625 C 6.429688 -1.90625 6.816406 -1.984375 7.171875 -2.140625 C 7.535156 -2.296875 7.851562 -2.515625 8.125 -2.796875 C 8.394531 -3.085938 8.601562 -3.425781 8.75 -3.8125 C 8.90625 -4.195312 8.984375 -4.613281 8.984375 -5.0625 C 8.984375 -5.5 8.90625 -5.910156 8.75 -6.296875 C 8.59375 -6.679688 8.378906 -7.015625 8.109375 -7.296875 C 7.847656 -7.585938 7.535156 -7.8125 7.171875 -7.96875 C 6.816406 -8.132812 6.429688 -8.21875 6.015625 -8.21875 C 5.472656 -8.21875 4.972656 -8.085938 4.515625 -7.828125 C 4.066406 -7.566406 3.707031 -7.195312 3.4375 -6.71875 C 3.175781 -6.25 3.046875 -5.695312 3.046875 -5.0625 C 3.046875 -4.40625 3.179688 -3.835938 3.453125 -3.359375 C 3.722656 -2.890625 4.082031 -2.53125 4.53125 -2.28125 C 4.988281 -2.03125 5.484375 -1.90625 6.015625 -1.90625 Z M 6.015625 -1.90625 "/></g></g></g></svg>