<svg xmlns="http://www.w3.org/2000/svg" xmlns:xlink="http://www.w3.org/1999/xlink" width="180" zoomAndPan="magnify" viewBox="0 0 135 74.999997" height="100" preserveAspectRatio="xMidYMid meet" version="1.2"><defs><clipPath id="c896ca23d3"><path d="M 32 26.679688 L 44.402344 26.679688 L 44.402344 46 L 32 46 Z M 32 26.679688 "/></clipPath><clipPath id="fbc43891e2"><path d="M 25.652344 27 L 38 27 L 38 46 L 25.652344 46 Z M 25.652344 27 "/></clipPath></defs><g id="4643c405f0"><rect x="0" width="135" y="0" height="74.999997" style="fill:#ffffff;fill-opacity:1;stroke:none;"/><rect x="0" width="135" y="0" height="74.999997" style="fill:#ffffff;fill-opacity:1;stroke:none;"/><g clip-rule="nonzero" clip-path="url(#c896ca23d3)"><path style=" stroke:none;fill-rule:nonzero;fill:#ff914d;fill-opacity:1;" d="M 44.398438 36.390625 C 44.398438 37.269531 44 38.054688 43.375 38.578125 L 36.945312 45.003906 C 35.835938 46.117188 34.03125 46.117188 32.917969 45.003906 C 32.75 44.835938 32.605469 44.648438 32.488281 44.453125 L 38.363281 38.578125 C 38.988281 38.054688 39.386719 37.269531 39.386719 36.390625 C 39.386719 35.476562 38.957031 34.664062 38.285156 34.144531 L 32.488281 28.347656 C 32.605469 28.148438 32.75 27.960938 32.917969 27.792969 C 34.03125 26.679688 35.832031 26.679688 36.945312 27.792969 L 43.296875 34.144531 C 43.96875 34.664062 44.398438 35.476562 44.398438 36.390625 "/></g><g clip-rule="nonzero" clip-path="url(#fbc43891e2)"><path style=" stroke:none;fill-rule:nonzero;fill:#fc4c05;fill-opacity:1;" d="M 36.621094 34.53125 L 30.160156 28.074219 C 29.664062 27.578125 29.007812 27.304688 28.304688 27.304688 C 27.605469 27.304688 26.945312 27.578125 26.449219 28.074219 C 25.953125 28.570312 25.679688 29.230469 25.679688 29.929688 C 25.679688 30.632812 25.953125 31.292969 26.449219 31.785156 L 31.050781 36.386719 L 26.425781 41.011719 C 25.929688 41.507812 25.660156 42.167969 25.660156 42.867188 C 25.660156 43.570312 25.929688 44.226562 26.425781 44.722656 C 26.921875 45.21875 27.582031 45.492188 28.285156 45.492188 C 28.984375 45.492188 29.644531 45.21875 30.140625 44.722656 L 36.621094 38.246094 C 37.113281 37.75 37.386719 37.089844 37.386719 36.386719 C 37.386719 35.6875 37.113281 35.027344 36.621094 34.53125 "/></g><g style="fill:#0a0a0a;fill-opacity:1;"><g transform="translate(47.205841, 42.220268)"><path style="stroke:none" d="M 3.5 0 L 1.375 0 L 1.375 -11.5625 L 3.5 -11.5625 Z M 3.5 0 "/></g></g><g style="fill:#0a0a0a;fill-opacity:1;"><g transform="translate(51.689471, 42.220268)"><path style="stroke:none" d="M 3.265625 0 L 1.203125 0 L 1.203125 -8.75 L 3.171875 -8.75 L 3.171875 -7.390625 C 3.335938 -7.703125 3.566406 -7.976562 3.859375 -8.21875 C 4.148438 -8.46875 4.492188 -8.660156 4.890625 -8.796875 C 5.285156 -8.941406 5.707031 -9.015625 6.15625 -9.015625 C 7.320312 -9.015625 8.195312 -8.640625 8.78125 -7.890625 C 9.363281 -7.140625 9.65625 -6.082031 9.65625 -4.71875 L 9.65625 0 L 7.609375 0 L 7.609375 -4.671875 C 7.609375 -5.535156 7.425781 -6.15625 7.0625 -6.53125 C 6.695312 -6.914062 6.203125 -7.109375 5.578125 -7.109375 C 5.171875 -7.109375 4.789062 -7.003906 4.4375 -6.796875 C 4.09375 -6.597656 3.8125 -6.300781 3.59375 -5.90625 C 3.375 -5.519531 3.265625 -5.039062 3.265625 -4.46875 Z M 3.265625 0 "/></g></g><g style="fill:#0a0a0a;fill-opacity:1;"><g transform="translate(62.112278, 42.220268)"><path style="stroke:none" d="M 5.109375 0.265625 C 4.453125 0.265625 3.847656 0.144531 3.296875 -0.09375 C 2.742188 -0.332031 2.265625 -0.664062 1.859375 -1.09375 C 1.460938 -1.519531 1.148438 -2.015625 0.921875 -2.578125 C 0.703125 -3.140625 0.59375 -3.738281 0.59375 -4.375 C 0.59375 -5.007812 0.703125 -5.601562 0.921875 -6.15625 C 1.148438 -6.71875 1.460938 -7.210938 1.859375 -7.640625 C 2.265625 -8.066406 2.742188 -8.398438 3.296875 -8.640625 C 3.847656 -8.890625 4.453125 -9.015625 5.109375 -9.015625 C 5.859375 -9.015625 6.53125 -8.863281 7.125 -8.5625 C 7.71875 -8.269531 8.210938 -7.875 8.609375 -7.375 C 9.015625 -6.875 9.296875 -6.300781 9.453125 -5.65625 L 7.359375 -5.65625 C 7.160156 -6.144531 6.859375 -6.503906 6.453125 -6.734375 C 6.054688 -6.972656 5.609375 -7.09375 5.109375 -7.09375 C 4.796875 -7.09375 4.488281 -7.03125 4.1875 -6.90625 C 3.894531 -6.789062 3.628906 -6.613281 3.390625 -6.375 C 3.160156 -6.144531 2.972656 -5.859375 2.828125 -5.515625 C 2.691406 -5.179688 2.625 -4.800781 2.625 -4.375 C 2.625 -3.9375 2.691406 -3.550781 2.828125 -3.21875 C 2.972656 -2.882812 3.160156 -2.597656 3.390625 -2.359375 C 3.628906 -2.117188 3.894531 -1.9375 4.1875 -1.8125 C 4.488281 -1.695312 4.796875 -1.640625 5.109375 -1.640625 C 5.609375 -1.640625 6.054688 -1.757812 6.453125 -2 C 6.859375 -2.25 7.160156 -2.648438 7.359375 -3.203125 L 9.453125 -3.203125 C 9.304688 -2.523438 9.03125 -1.925781 8.625 -1.40625 C 8.21875 -0.882812 7.71875 -0.472656 7.125 -0.171875 C 6.53125 0.117188 5.859375 0.265625 5.109375 0.265625 Z M 5.109375 0.265625 "/></g></g><g style="fill:#0a0a0a;fill-opacity:1;"><g transform="translate(71.641656, 42.220268)"><path style="stroke:none" d="M 5.140625 0.265625 C 4.554688 0.265625 4.015625 0.179688 3.515625 0.015625 C 3.015625 -0.140625 2.578125 -0.390625 2.203125 -0.734375 C 1.828125 -1.085938 1.535156 -1.535156 1.328125 -2.078125 C 1.117188 -2.628906 1.015625 -3.296875 1.015625 -4.078125 L 1.015625 -8.75 L 3.0625 -8.75 L 3.0625 -4.140625 C 3.0625 -3.328125 3.234375 -2.707031 3.578125 -2.28125 C 3.921875 -1.863281 4.4375 -1.65625 5.125 -1.65625 C 5.820312 -1.65625 6.335938 -1.867188 6.671875 -2.296875 C 7.015625 -2.722656 7.1875 -3.335938 7.1875 -4.140625 L 7.1875 -8.75 L 9.234375 -8.75 L 9.234375 -4.078125 C 9.234375 -3.296875 9.128906 -2.628906 8.921875 -2.078125 C 8.722656 -1.535156 8.4375 -1.085938 8.0625 -0.734375 C 7.6875 -0.390625 7.25 -0.140625 6.75 0.015625 C 6.25 0.179688 5.710938 0.265625 5.140625 0.265625 Z M 5.140625 0.265625 "/></g></g><g style="fill:#0a0a0a;fill-opacity:1;"><g transform="translate(81.519897, 42.220268)"><path style="stroke:none" d="M 5.1875 0.265625 C 4.519531 0.265625 3.90625 0.144531 3.34375 -0.09375 C 2.78125 -0.332031 2.289062 -0.664062 1.875 -1.09375 C 1.46875 -1.519531 1.148438 -2.007812 0.921875 -2.5625 C 0.703125 -3.125 0.59375 -3.726562 0.59375 -4.375 C 0.59375 -5.007812 0.703125 -5.609375 0.921875 -6.171875 C 1.148438 -6.734375 1.46875 -7.222656 1.875 -7.640625 C 2.289062 -8.066406 2.78125 -8.398438 3.34375 -8.640625 C 3.90625 -8.890625 4.519531 -9.015625 5.1875 -9.015625 C 5.863281 -9.015625 6.484375 -8.890625 7.046875 -8.640625 C 7.609375 -8.398438 8.09375 -8.066406 8.5 -7.640625 C 8.914062 -7.222656 9.238281 -6.734375 9.46875 -6.171875 C 9.695312 -5.609375 9.8125 -5.007812 9.8125 -4.375 C 9.8125 -3.726562 9.695312 -3.125 9.46875 -2.5625 C 9.238281 -2.007812 8.914062 -1.519531 8.5 -1.09375 C 8.09375 -0.664062 7.601562 -0.332031 7.03125 -0.09375 C 6.46875 0.144531 5.851562 0.265625 5.1875 0.265625 Z M 5.203125 -1.65625 C 5.691406 -1.65625 6.128906 -1.769531 6.515625 -2 C 6.898438 -2.238281 7.203125 -2.5625 7.421875 -2.96875 C 7.648438 -3.375 7.765625 -3.84375 7.765625 -4.375 C 7.765625 -4.894531 7.648438 -5.359375 7.421875 -5.765625 C 7.203125 -6.179688 6.898438 -6.507812 6.515625 -6.75 C 6.128906 -6.988281 5.691406 -7.109375 5.203125 -7.109375 C 4.710938 -7.109375 4.269531 -6.988281 3.875 -6.75 C 3.488281 -6.507812 3.179688 -6.179688 2.953125 -5.765625 C 2.734375 -5.359375 2.625 -4.894531 2.625 -4.375 C 2.625 -3.84375 2.734375 -3.375 2.953125 -2.96875 C 3.179688 -2.5625 3.488281 -2.238281 3.875 -2 C 4.269531 -1.769531 4.710938 -1.65625 5.203125 -1.65625 Z M 5.203125 -1.65625 "/></g></g><g style="fill:#0a0a0a;fill-opacity:1;"><g transform="translate(91.534279, 42.220268)"><path style="stroke:none" d="M 3.265625 0 L 1.203125 0 L 1.203125 -8.75 L 3.1875 -8.75 L 3.1875 -7.15625 C 3.382812 -7.644531 3.679688 -8.03125 4.078125 -8.3125 C 4.472656 -8.601562 4.957031 -8.75 5.53125 -8.75 L 6.46875 -8.75 L 6.46875 -6.96875 L 5.640625 -6.96875 C 5.171875 -6.96875 4.753906 -6.851562 4.390625 -6.625 C 4.035156 -6.40625 3.757812 -6.078125 3.5625 -5.640625 C 3.363281 -5.210938 3.265625 -4.6875 3.265625 -4.0625 Z M 3.265625 0 "/></g></g><g style="fill:#0a0a0a;fill-opacity:1;"><g transform="translate(97.881347, 42.220268)"><path style="stroke:none" d="M 4.703125 0.265625 C 4.109375 0.265625 3.5625 0.144531 3.0625 -0.09375 C 2.5625 -0.332031 2.125 -0.664062 1.75 -1.09375 C 1.382812 -1.519531 1.097656 -2.007812 0.890625 -2.5625 C 0.691406 -3.125 0.59375 -3.726562 0.59375 -4.375 C 0.59375 -5.007812 0.691406 -5.609375 0.890625 -6.171875 C 1.097656 -6.734375 1.390625 -7.222656 1.765625 -7.640625 C 2.140625 -8.066406 2.570312 -8.398438 3.0625 -8.640625 C 3.5625 -8.890625 4.109375 -9.015625 4.703125 -9.015625 C 5.410156 -9.015625 6.039062 -8.859375 6.59375 -8.546875 C 7.15625 -8.234375 7.578125 -7.804688 7.859375 -7.265625 L 7.859375 -8.75 L 9.8125 -8.75 L 9.8125 0 L 7.859375 0 L 7.859375 -1.46875 C 7.566406 -0.925781 7.144531 -0.5 6.59375 -0.1875 C 6.039062 0.113281 5.410156 0.265625 4.703125 0.265625 Z M 5.203125 -1.640625 C 5.554688 -1.640625 5.890625 -1.707031 6.203125 -1.84375 C 6.515625 -1.988281 6.785156 -2.179688 7.015625 -2.421875 C 7.253906 -2.671875 7.4375 -2.960938 7.5625 -3.296875 C 7.695312 -3.628906 7.765625 -3.988281 7.765625 -4.375 C 7.765625 -4.75 7.695312 -5.101562 7.5625 -5.4375 C 7.425781 -5.769531 7.242188 -6.0625 7.015625 -6.3125 C 6.785156 -6.5625 6.515625 -6.753906 6.203125 -6.890625 C 5.890625 -7.035156 5.554688 -7.109375 5.203125 -7.109375 C 4.722656 -7.109375 4.289062 -6.992188 3.90625 -6.765625 C 3.519531 -6.535156 3.207031 -6.21875 2.96875 -5.8125 C 2.738281 -5.40625 2.625 -4.925781 2.625 -4.375 C 2.625 -3.800781 2.738281 -3.3125 2.96875 -2.90625 C 3.207031 -2.5 3.523438 -2.1875 3.921875 -1.96875 C 4.316406 -1.75 4.742188 -1.640625 5.203125 -1.640625 Z M 5.203125 -1.640625 "/></g></g></g></svg>