<svg xmlns="http://www.w3.org/2000/svg" xmlns:xlink="http://www.w3.org/1999/xlink" width="180" zoomAndPan="magnify" viewBox="0 0 135 74.999997" height="100" preserveAspectRatio="xMidYMid meet" version="1.2"><defs><clipPath id="ab03acaf5e"><path d="M 35 25.273438 L 50.59375 25.273438 L 50.59375 50 L 35 50 Z M 35 25.273438 "/></clipPath><clipPath id="b07d3dee81"><path d="M 27.34375 26 L 42 26 L 42 49 L 27.34375 49 Z M 27.34375 26 "/></clipPath></defs><g id="c4d6c7d319"><g clip-rule="nonzero" clip-path="url(#ab03acaf5e)"><path style=" stroke:none;fill-rule:nonzero;fill:#ff914d;fill-opacity:1;" d="M 50.589844 37.316406 C 50.589844 38.40625 50.09375 39.382812 49.320312 40.027344 L 41.347656 48 C 39.96875 49.378906 37.730469 49.378906 36.351562 48 C 36.140625 47.789062 35.964844 47.558594 35.820312 47.3125 L 43.105469 40.027344 C 43.878906 39.382812 44.375 38.40625 44.375 37.316406 C 44.375 36.179688 43.839844 35.175781 43.007812 34.527344 L 35.816406 27.339844 C 35.964844 27.09375 36.140625 26.863281 36.351562 26.652344 C 37.730469 25.273438 39.96875 25.273438 41.347656 26.652344 L 49.222656 34.527344 C 50.054688 35.175781 50.589844 36.179688 50.589844 37.316406 "/></g><g clip-rule="nonzero" clip-path="url(#b07d3dee81)"><path style=" stroke:none;fill-rule:nonzero;fill:#fc4c05;fill-opacity:1;" d="M 40.941406 35.011719 L 32.933594 27.003906 C 32.320312 26.386719 31.5 26.050781 30.632812 26.050781 C 29.761719 26.050781 28.945312 26.386719 28.328125 27.003906 C 27.714844 27.617188 27.375 28.4375 27.375 29.304688 C 27.375 30.175781 27.714844 30.992188 28.328125 31.605469 L 34.035156 37.3125 L 28.300781 43.046875 C 27.6875 43.660156 27.347656 44.480469 27.347656 45.347656 C 27.347656 46.21875 27.6875 47.035156 28.300781 47.652344 C 28.917969 48.265625 29.734375 48.605469 30.605469 48.605469 C 31.472656 48.605469 32.292969 48.265625 32.90625 47.652344 L 40.941406 39.613281 C 41.554688 39 41.894531 38.183594 41.894531 37.3125 C 41.894531 36.441406 41.554688 35.625 40.941406 35.011719 "/></g><g style="fill:#0a0a0a;fill-opacity:1;"><g transform="translate(53.312862, 41.272388)"><path style="stroke:none" d="M 1.9375 -8.84375 C 1.59375 -8.84375 1.320312 -8.941406 1.125 -9.140625 C 0.925781 -9.335938 0.828125 -9.582031 0.828125 -9.875 C 0.828125 -10.144531 0.925781 -10.378906 1.125 -10.578125 C 1.320312 -10.785156 1.597656 -10.890625 1.953125 -10.890625 C 2.304688 -10.890625 2.582031 -10.785156 2.78125 -10.578125 C 2.976562 -10.378906 3.078125 -10.144531 3.078125 -9.875 C 3.078125 -9.582031 2.976562 -9.335938 2.78125 -9.140625 C 2.582031 -8.941406 2.300781 -8.84375 1.9375 -8.84375 Z M 2.859375 0 L 1.0625 0 L 1.0625 -7.640625 L 2.859375 -7.640625 Z M 2.859375 0 "/></g></g><g style="fill:#0a0a0a;fill-opacity:1;"><g transform="translate(56.884177, 41.272388)"><path style="stroke:none" d="M 2.859375 0 L 1.0625 0 L 1.0625 -7.640625 L 2.765625 -7.640625 L 2.765625 -6.453125 C 2.910156 -6.734375 3.113281 -6.976562 3.375 -7.1875 C 3.632812 -7.40625 3.9375 -7.570312 4.28125 -7.6875 C 4.625 -7.8125 4.988281 -7.875 5.375 -7.875 C 6.40625 -7.875 7.175781 -7.546875 7.6875 -6.890625 C 8.195312 -6.242188 8.453125 -5.320312 8.453125 -4.125 L 8.453125 0 L 6.65625 0 L 6.65625 -4.078125 C 6.65625 -4.835938 6.492188 -5.382812 6.171875 -5.71875 C 5.859375 -6.050781 5.425781 -6.21875 4.875 -6.21875 C 4.53125 -6.21875 4.203125 -6.128906 3.890625 -5.953125 C 3.578125 -5.773438 3.328125 -5.515625 3.140625 -5.171875 C 2.953125 -4.828125 2.859375 -4.40625 2.859375 -3.90625 Z M 2.859375 0 "/></g></g><g style="fill:#0a0a0a;fill-opacity:1;"><g transform="translate(65.999196, 41.272388)"><path style="stroke:none" d="M 4.46875 0.234375 C 3.894531 0.234375 3.367188 0.128906 2.890625 -0.078125 C 2.410156 -0.296875 1.988281 -0.585938 1.625 -0.953125 C 1.269531 -1.328125 0.992188 -1.757812 0.796875 -2.25 C 0.609375 -2.738281 0.515625 -3.265625 0.515625 -3.828125 C 0.515625 -4.378906 0.609375 -4.898438 0.796875 -5.390625 C 0.992188 -5.878906 1.269531 -6.3125 1.625 -6.6875 C 1.988281 -7.0625 2.410156 -7.351562 2.890625 -7.5625 C 3.367188 -7.769531 3.894531 -7.875 4.46875 -7.875 C 5.125 -7.875 5.707031 -7.742188 6.21875 -7.484375 C 6.738281 -7.234375 7.175781 -6.882812 7.53125 -6.4375 C 7.882812 -6 8.128906 -5.503906 8.265625 -4.953125 L 6.4375 -4.953125 C 6.269531 -5.378906 6.007812 -5.691406 5.65625 -5.890625 C 5.300781 -6.097656 4.90625 -6.203125 4.46875 -6.203125 C 4.1875 -6.203125 3.914062 -6.148438 3.65625 -6.046875 C 3.40625 -5.941406 3.175781 -5.785156 2.96875 -5.578125 C 2.757812 -5.378906 2.59375 -5.128906 2.46875 -4.828125 C 2.351562 -4.535156 2.296875 -4.203125 2.296875 -3.828125 C 2.296875 -3.453125 2.351562 -3.113281 2.46875 -2.8125 C 2.59375 -2.519531 2.757812 -2.269531 2.96875 -2.0625 C 3.175781 -1.851562 3.410156 -1.695312 3.671875 -1.59375 C 3.929688 -1.488281 4.195312 -1.4375 4.46875 -1.4375 C 4.90625 -1.4375 5.300781 -1.539062 5.65625 -1.75 C 6.007812 -1.96875 6.269531 -2.316406 6.4375 -2.796875 L 8.265625 -2.796875 C 8.140625 -2.203125 7.898438 -1.675781 7.546875 -1.21875 C 7.191406 -0.769531 6.75 -0.414062 6.21875 -0.15625 C 5.695312 0.101562 5.113281 0.234375 4.46875 0.234375 Z M 4.46875 0.234375 "/></g></g><g style="fill:#0a0a0a;fill-opacity:1;"><g transform="translate(74.332887, 41.272388)"><path style="stroke:none" d="M 4.5 0.234375 C 3.988281 0.234375 3.515625 0.160156 3.078125 0.015625 C 2.640625 -0.117188 2.253906 -0.335938 1.921875 -0.640625 C 1.597656 -0.941406 1.34375 -1.332031 1.15625 -1.8125 C 0.976562 -2.300781 0.890625 -2.882812 0.890625 -3.5625 L 0.890625 -7.640625 L 2.671875 -7.640625 L 2.671875 -3.609375 C 2.671875 -2.910156 2.820312 -2.375 3.125 -2 C 3.425781 -1.625 3.878906 -1.4375 4.484375 -1.4375 C 5.085938 -1.4375 5.535156 -1.625 5.828125 -2 C 6.128906 -2.375 6.28125 -2.910156 6.28125 -3.609375 L 6.28125 -7.640625 L 8.078125 -7.640625 L 8.078125 -3.5625 C 8.078125 -2.882812 7.984375 -2.300781 7.796875 -1.8125 C 7.617188 -1.332031 7.363281 -0.941406 7.03125 -0.640625 C 6.707031 -0.335938 6.328125 -0.117188 5.890625 0.015625 C 5.460938 0.160156 5 0.234375 4.5 0.234375 Z M 4.5 0.234375 "/></g></g><g style="fill:#0a0a0a;fill-opacity:1;"><g transform="translate(82.971669, 41.272388)"><path style="stroke:none" d="M 4.53125 0.234375 C 3.945312 0.234375 3.410156 0.128906 2.921875 -0.078125 C 2.429688 -0.285156 2.003906 -0.578125 1.640625 -0.953125 C 1.285156 -1.328125 1.007812 -1.757812 0.8125 -2.25 C 0.613281 -2.738281 0.515625 -3.265625 0.515625 -3.828125 C 0.515625 -4.378906 0.613281 -4.898438 0.8125 -5.390625 C 1.007812 -5.878906 1.285156 -6.3125 1.640625 -6.6875 C 2.003906 -7.0625 2.429688 -7.351562 2.921875 -7.5625 C 3.410156 -7.769531 3.945312 -7.875 4.53125 -7.875 C 5.125 -7.875 5.664062 -7.769531 6.15625 -7.5625 C 6.644531 -7.351562 7.070312 -7.0625 7.4375 -6.6875 C 7.800781 -6.3125 8.082031 -5.878906 8.28125 -5.390625 C 8.476562 -4.898438 8.578125 -4.378906 8.578125 -3.828125 C 8.578125 -3.253906 8.476562 -2.722656 8.28125 -2.234375 C 8.082031 -1.753906 7.800781 -1.328125 7.4375 -0.953125 C 7.070312 -0.578125 6.644531 -0.285156 6.15625 -0.078125 C 5.664062 0.128906 5.125 0.234375 4.53125 0.234375 Z M 4.546875 -1.4375 C 4.972656 -1.4375 5.351562 -1.539062 5.6875 -1.75 C 6.03125 -1.957031 6.300781 -2.238281 6.5 -2.59375 C 6.695312 -2.945312 6.796875 -3.359375 6.796875 -3.828125 C 6.796875 -4.285156 6.695312 -4.691406 6.5 -5.046875 C 6.300781 -5.410156 6.03125 -5.695312 5.6875 -5.90625 C 5.351562 -6.113281 4.972656 -6.21875 4.546875 -6.21875 C 4.117188 -6.21875 3.734375 -6.113281 3.390625 -5.90625 C 3.054688 -5.695312 2.789062 -5.410156 2.59375 -5.046875 C 2.394531 -4.691406 2.296875 -4.285156 2.296875 -3.828125 C 2.296875 -3.359375 2.394531 -2.945312 2.59375 -2.59375 C 2.789062 -2.238281 3.054688 -1.957031 3.390625 -1.75 C 3.734375 -1.539062 4.117188 -1.4375 4.546875 -1.4375 Z M 4.546875 -1.4375 "/></g></g><g style="fill:#0a0a0a;fill-opacity:1;"><g transform="translate(91.72951, 41.272388)"><path style="stroke:none" d="M 2.859375 0 L 1.0625 0 L 1.0625 -7.640625 L 2.78125 -7.640625 L 2.78125 -6.265625 C 2.957031 -6.679688 3.21875 -7.015625 3.5625 -7.265625 C 3.914062 -7.515625 4.335938 -7.640625 4.828125 -7.640625 L 5.65625 -7.640625 L 5.65625 -6.09375 L 4.9375 -6.09375 C 4.519531 -6.09375 4.15625 -5.992188 3.84375 -5.796875 C 3.53125 -5.597656 3.285156 -5.3125 3.109375 -4.9375 C 2.941406 -4.5625 2.859375 -4.101562 2.859375 -3.5625 Z M 2.859375 0 "/></g></g><g style="fill:#0a0a0a;fill-opacity:1;"><g transform="translate(97.280188, 41.272388)"><path style="stroke:none" d="M 4.109375 0.234375 C 3.597656 0.234375 3.117188 0.128906 2.671875 -0.078125 C 2.234375 -0.285156 1.851562 -0.578125 1.53125 -0.953125 C 1.207031 -1.328125 0.957031 -1.757812 0.78125 -2.25 C 0.601562 -2.738281 0.515625 -3.265625 0.515625 -3.828125 C 0.515625 -4.378906 0.601562 -4.898438 0.78125 -5.390625 C 0.96875 -5.878906 1.222656 -6.3125 1.546875 -6.6875 C 1.867188 -7.0625 2.25 -7.351562 2.6875 -7.5625 C 3.125 -7.769531 3.597656 -7.875 4.109375 -7.875 C 4.734375 -7.875 5.285156 -7.738281 5.765625 -7.46875 C 6.253906 -7.195312 6.617188 -6.828125 6.859375 -6.359375 L 6.859375 -7.640625 L 8.578125 -7.640625 L 8.578125 0 L 6.859375 0 L 6.859375 -1.28125 C 6.617188 -0.8125 6.253906 -0.441406 5.765625 -0.171875 C 5.285156 0.0976562 4.734375 0.234375 4.109375 0.234375 Z M 4.546875 -1.4375 C 4.859375 -1.4375 5.148438 -1.492188 5.421875 -1.609375 C 5.691406 -1.734375 5.929688 -1.90625 6.140625 -2.125 C 6.347656 -2.34375 6.507812 -2.59375 6.625 -2.875 C 6.738281 -3.164062 6.796875 -3.484375 6.796875 -3.828125 C 6.796875 -4.160156 6.734375 -4.46875 6.609375 -4.75 C 6.492188 -5.039062 6.332031 -5.296875 6.125 -5.515625 C 5.925781 -5.734375 5.691406 -5.90625 5.421875 -6.03125 C 5.148438 -6.15625 4.859375 -6.21875 4.546875 -6.21875 C 4.128906 -6.21875 3.75 -6.113281 3.40625 -5.90625 C 3.070312 -5.707031 2.800781 -5.429688 2.59375 -5.078125 C 2.394531 -4.722656 2.296875 -4.304688 2.296875 -3.828125 C 2.296875 -3.328125 2.398438 -2.898438 2.609375 -2.546875 C 2.816406 -2.191406 3.085938 -1.914062 3.421875 -1.71875 C 3.765625 -1.53125 4.140625 -1.4375 4.546875 -1.4375 Z M 4.546875 -1.4375 "/></g></g></g></svg>