<svg xmlns="http://www.w3.org/2000/svg" xmlns:xlink="http://www.w3.org/1999/xlink" width="480" zoomAndPan="magnify" viewBox="0 0 360 359.999987" height="480" preserveAspectRatio="xMidYMid meet" version="1.2"><defs><clipPath id="b84ca876a5"><path d="M 72 144.011719 L 105.664062 144.011719 L 105.664062 198 L 72 198 Z M 72 144.011719 "/></clipPath><clipPath id="c934320f4f"><path d="M 53.164062 145 L 86 145 L 86 197 L 53.164062 197 Z M 53.164062 145 "/></clipPath></defs><g id="8ea13e0b07"><g clip-rule="nonzero" clip-path="url(#b84ca876a5)"><path style=" stroke:none;fill-rule:nonzero;fill:#ff914d;fill-opacity:1;" d="M 105.242188 170.988281 C 105.242188 173.429688 104.132812 175.617188 102.394531 177.066406 L 84.542969 194.921875 C 81.449219 198.011719 76.4375 198.011719 73.351562 194.921875 C 72.878906 194.449219 72.480469 193.9375 72.152344 193.386719 L 88.472656 177.066406 C 90.210938 175.617188 91.324219 173.429688 91.324219 170.988281 C 91.324219 168.445312 90.121094 166.195312 88.257812 164.746094 L 72.152344 148.640625 C 72.480469 148.089844 72.878906 147.574219 73.347656 147.105469 C 76.4375 144.011719 81.449219 144.011719 84.539062 147.105469 L 102.183594 164.746094 C 104.042969 166.191406 105.242188 168.445312 105.242188 170.988281 "/></g><g clip-rule="nonzero" clip-path="url(#c934320f4f)"><path style=" stroke:none;fill-rule:nonzero;fill:#fc4c05;fill-opacity:1;" d="M 83.632812 165.824219 L 65.691406 147.886719 C 64.3125 146.507812 62.484375 145.75 60.53125 145.75 C 58.585938 145.75 56.753906 146.507812 55.375 147.886719 C 54 149.265625 53.242188 151.09375 53.242188 153.042969 C 53.242188 154.992188 54 156.820312 55.375 158.199219 L 68.15625 170.980469 L 55.316406 183.824219 C 53.9375 185.203125 53.179688 187.035156 53.179688 188.984375 C 53.179688 190.929688 53.9375 192.761719 55.316406 194.140625 C 56.691406 195.519531 58.523438 196.277344 60.472656 196.277344 C 62.421875 196.277344 64.25 195.519531 65.628906 194.140625 L 83.632812 176.136719 C 85.007812 174.761719 85.765625 172.933594 85.765625 170.980469 C 85.765625 169.035156 85.007812 167.203125 83.632812 165.824219 "/></g><g style="fill:#0a0a0a;fill-opacity:1;"><g transform="translate(134.885329, 199.110677)"><path style="stroke:none" d="M 6.140625 -27.96875 C 5.046875 -27.96875 4.1875 -28.285156 3.5625 -28.921875 C 2.945312 -29.554688 2.640625 -30.332031 2.640625 -31.25 C 2.640625 -32.125 2.945312 -32.882812 3.5625 -33.53125 C 4.1875 -34.175781 5.054688 -34.5 6.171875 -34.5 C 7.316406 -34.5 8.195312 -34.175781 8.8125 -33.53125 C 9.4375 -32.882812 9.75 -32.125 9.75 -31.25 C 9.75 -30.332031 9.4375 -29.554688 8.8125 -28.921875 C 8.195312 -28.285156 7.304688 -27.96875 6.140625 -27.96875 Z M 9.046875 0 L 3.34375 0 L 3.34375 -24.203125 L 9.046875 -24.203125 Z M 9.046875 0 "/></g></g><g style="fill:#0a0a0a;fill-opacity:1;"><g transform="translate(146.185101, 199.110677)"><path style="stroke:none" d="M 9.046875 0 L 3.34375 0 L 3.34375 -24.203125 L 8.765625 -24.203125 L 8.765625 -20.4375 C 9.234375 -21.3125 9.875 -22.085938 10.6875 -22.765625 C 11.5 -23.441406 12.445312 -23.972656 13.53125 -24.359375 C 14.613281 -24.742188 15.773438 -24.9375 17.015625 -24.9375 C 20.265625 -24.9375 22.695312 -23.898438 24.3125 -21.828125 C 25.9375 -19.765625 26.75 -16.835938 26.75 -13.046875 L 26.75 0 L 21.046875 0 L 21.046875 -12.921875 C 21.046875 -15.328125 20.539062 -17.054688 19.53125 -18.109375 C 18.53125 -19.160156 17.164062 -19.6875 15.4375 -19.6875 C 14.320312 -19.6875 13.28125 -19.398438 12.3125 -18.828125 C 11.34375 -18.265625 10.554688 -17.441406 9.953125 -16.359375 C 9.347656 -15.273438 9.046875 -13.941406 9.046875 -12.359375 Z M 9.046875 0 "/></g></g><g style="fill:#0a0a0a;fill-opacity:1;"><g transform="translate(175.025357, 199.110677)"><path style="stroke:none" d="M 14.125 0.734375 C 12.320312 0.734375 10.65625 0.398438 9.125 -0.265625 C 7.601562 -0.929688 6.28125 -1.851562 5.15625 -3.03125 C 4.039062 -4.207031 3.171875 -5.570312 2.546875 -7.125 C 1.929688 -8.6875 1.625 -10.347656 1.625 -12.109375 C 1.625 -13.859375 1.929688 -15.503906 2.546875 -17.046875 C 3.171875 -18.597656 4.039062 -19.96875 5.15625 -21.15625 C 6.28125 -22.34375 7.601562 -23.269531 9.125 -23.9375 C 10.65625 -24.601562 12.320312 -24.9375 14.125 -24.9375 C 16.21875 -24.9375 18.082031 -24.53125 19.71875 -23.71875 C 21.351562 -22.914062 22.722656 -21.8125 23.828125 -20.40625 C 24.941406 -19.007812 25.726562 -17.425781 26.1875 -15.65625 L 20.359375 -15.65625 C 19.828125 -17.007812 19.003906 -18.007812 17.890625 -18.65625 C 16.773438 -19.3125 15.53125 -19.640625 14.15625 -19.640625 C 13.269531 -19.640625 12.421875 -19.46875 11.609375 -19.125 C 10.796875 -18.789062 10.0625 -18.300781 9.40625 -17.65625 C 8.75 -17.007812 8.226562 -16.21875 7.84375 -15.28125 C 7.46875 -14.351562 7.28125 -13.296875 7.28125 -12.109375 C 7.28125 -10.910156 7.46875 -9.84375 7.84375 -8.90625 C 8.226562 -7.976562 8.75 -7.1875 9.40625 -6.53125 C 10.0625 -5.882812 10.800781 -5.390625 11.625 -5.046875 C 12.445312 -4.710938 13.289062 -4.546875 14.15625 -4.546875 C 15.53125 -4.546875 16.773438 -4.882812 17.890625 -5.5625 C 19.003906 -6.25 19.828125 -7.347656 20.359375 -8.859375 L 26.15625 -8.859375 C 25.75 -6.984375 24.988281 -5.320312 23.875 -3.875 C 22.757812 -2.4375 21.375 -1.304688 19.71875 -0.484375 C 18.0625 0.328125 16.195312 0.734375 14.125 0.734375 Z M 14.125 0.734375 "/></g></g><g style="fill:#0a0a0a;fill-opacity:1;"><g transform="translate(201.393464, 199.110677)"><path style="stroke:none" d="M 14.21875 0.734375 C 12.601562 0.734375 11.101562 0.507812 9.71875 0.0625 C 8.34375 -0.382812 7.132812 -1.085938 6.09375 -2.046875 C 5.0625 -3.003906 4.257812 -4.242188 3.6875 -5.765625 C 3.113281 -7.285156 2.828125 -9.125 2.828125 -11.28125 L 2.828125 -24.203125 L 8.46875 -24.203125 L 8.46875 -11.4375 C 8.46875 -9.207031 8.945312 -7.503906 9.90625 -6.328125 C 10.863281 -5.148438 12.296875 -4.5625 14.203125 -4.5625 C 16.109375 -4.5625 17.53125 -5.15625 18.46875 -6.34375 C 19.414062 -7.53125 19.890625 -9.226562 19.890625 -11.4375 L 19.890625 -24.203125 L 25.5625 -24.203125 L 25.5625 -11.28125 C 25.5625 -9.125 25.273438 -7.285156 24.703125 -5.765625 C 24.128906 -4.242188 23.328125 -3.003906 22.296875 -2.046875 C 21.265625 -1.085938 20.0625 -0.382812 18.6875 0.0625 C 17.3125 0.507812 15.820312 0.734375 14.21875 0.734375 Z M 14.21875 0.734375 "/></g></g><g style="fill:#0a0a0a;fill-opacity:1;"><g transform="translate(228.726887, 199.110677)"><path style="stroke:none" d="M 14.34375 0.734375 C 12.5 0.734375 10.800781 0.40625 9.25 -0.25 C 7.695312 -0.914062 6.351562 -1.835938 5.21875 -3.015625 C 4.082031 -4.191406 3.195312 -5.554688 2.5625 -7.109375 C 1.9375 -8.660156 1.625 -10.328125 1.625 -12.109375 C 1.625 -13.878906 1.9375 -15.535156 2.5625 -17.078125 C 3.195312 -18.628906 4.082031 -19.992188 5.21875 -21.171875 C 6.351562 -22.347656 7.695312 -23.269531 9.25 -23.9375 C 10.800781 -24.601562 12.503906 -24.9375 14.359375 -24.9375 C 16.222656 -24.9375 17.929688 -24.601562 19.484375 -23.9375 C 21.046875 -23.269531 22.398438 -22.347656 23.546875 -21.171875 C 24.691406 -19.992188 25.578125 -18.628906 26.203125 -17.078125 C 26.828125 -15.535156 27.140625 -13.878906 27.140625 -12.109375 C 27.140625 -10.316406 26.828125 -8.644531 26.203125 -7.09375 C 25.578125 -5.550781 24.691406 -4.191406 23.546875 -3.015625 C 22.398438 -1.835938 21.046875 -0.914062 19.484375 -0.25 C 17.921875 0.40625 16.207031 0.734375 14.34375 0.734375 Z M 14.390625 -4.5625 C 15.753906 -4.5625 16.96875 -4.882812 18.03125 -5.53125 C 19.101562 -6.1875 19.945312 -7.078125 20.5625 -8.203125 C 21.1875 -9.335938 21.5 -10.640625 21.5 -12.109375 C 21.5 -13.566406 21.1875 -14.863281 20.5625 -16 C 19.945312 -17.132812 19.101562 -18.023438 18.03125 -18.671875 C 16.96875 -19.328125 15.753906 -19.65625 14.390625 -19.65625 C 13.035156 -19.65625 11.820312 -19.328125 10.75 -18.671875 C 9.675781 -18.023438 8.828125 -17.132812 8.203125 -16 C 7.585938 -14.863281 7.28125 -13.566406 7.28125 -12.109375 C 7.28125 -10.640625 7.585938 -9.335938 8.203125 -8.203125 C 8.828125 -7.078125 9.675781 -6.1875 10.75 -5.53125 C 11.820312 -4.882812 13.035156 -4.5625 14.390625 -4.5625 Z M 14.390625 -4.5625 "/></g></g><g style="fill:#0a0a0a;fill-opacity:1;"><g transform="translate(256.437018, 199.110677)"><path style="stroke:none" d="M 9.046875 0 L 3.34375 0 L 3.34375 -24.203125 L 8.8125 -24.203125 L 8.8125 -19.828125 C 9.375 -21.160156 10.203125 -22.222656 11.296875 -23.015625 C 12.398438 -23.804688 13.734375 -24.203125 15.296875 -24.203125 L 17.890625 -24.203125 L 17.890625 -19.3125 L 15.609375 -19.3125 C 14.304688 -19.3125 13.160156 -18.992188 12.171875 -18.359375 C 11.179688 -17.734375 10.410156 -16.820312 9.859375 -15.625 C 9.316406 -14.4375 9.046875 -12.976562 9.046875 -11.25 Z M 9.046875 0 "/></g></g><g style="fill:#0a0a0a;fill-opacity:1;"><g transform="translate(273.999566, 199.110677)"><path style="stroke:none" d="M 13.015625 0.734375 C 11.390625 0.734375 9.878906 0.40625 8.484375 -0.25 C 7.097656 -0.914062 5.890625 -1.835938 4.859375 -3.015625 C 3.828125 -4.191406 3.03125 -5.554688 2.46875 -7.109375 C 1.90625 -8.660156 1.625 -10.328125 1.625 -12.109375 C 1.625 -13.878906 1.910156 -15.535156 2.484375 -17.078125 C 3.054688 -18.628906 3.851562 -19.992188 4.875 -21.171875 C 5.90625 -22.347656 7.113281 -23.269531 8.5 -23.9375 C 9.882812 -24.601562 11.382812 -24.9375 13 -24.9375 C 14.976562 -24.9375 16.734375 -24.503906 18.265625 -23.640625 C 19.804688 -22.785156 20.960938 -21.609375 21.734375 -20.109375 L 21.734375 -24.203125 L 27.140625 -24.203125 L 27.140625 0 L 21.734375 0 L 21.734375 -4.078125 C 20.941406 -2.566406 19.78125 -1.382812 18.25 -0.53125 C 16.726562 0.3125 14.984375 0.734375 13.015625 0.734375 Z M 14.390625 -4.546875 C 15.378906 -4.546875 16.300781 -4.738281 17.15625 -5.125 C 18.019531 -5.507812 18.773438 -6.039062 19.421875 -6.71875 C 20.078125 -7.40625 20.585938 -8.207031 20.953125 -9.125 C 21.316406 -10.039062 21.5 -11.035156 21.5 -12.109375 C 21.5 -13.148438 21.3125 -14.128906 20.9375 -15.046875 C 20.570312 -15.972656 20.066406 -16.78125 19.421875 -17.46875 C 18.773438 -18.15625 18.019531 -18.691406 17.15625 -19.078125 C 16.300781 -19.460938 15.378906 -19.65625 14.390625 -19.65625 C 13.085938 -19.65625 11.894531 -19.34375 10.8125 -18.71875 C 9.738281 -18.09375 8.878906 -17.210938 8.234375 -16.078125 C 7.597656 -14.953125 7.28125 -13.628906 7.28125 -12.109375 C 7.28125 -10.535156 7.601562 -9.179688 8.25 -8.046875 C 8.90625 -6.921875 9.773438 -6.054688 10.859375 -5.453125 C 11.941406 -4.847656 13.117188 -4.546875 14.390625 -4.546875 Z M 14.390625 -4.546875 "/></g></g></g></svg>