<svg xmlns="http://www.w3.org/2000/svg" xmlns:xlink="http://www.w3.org/1999/xlink" width="180" zoomAndPan="magnify" viewBox="0 0 135 74.999997" height="100" preserveAspectRatio="xMidYMid meet" version="1.2"><defs><clipPath id="2170159ac9"><path d="M 25 24.511719 L 39.765625 24.511719 L 39.765625 47.761719 L 25 47.761719 Z M 25 24.511719 "/></clipPath><clipPath id="2dd50bff11"><path d="M 17.265625 25 L 32 25 L 32 47.761719 L 17.265625 47.761719 Z M 17.265625 25 "/></clipPath></defs><g id="06d2d7a5c2"><rect x="0" width="135" y="0" height="74.999997" style="fill:#ffffff;fill-opacity:1;stroke:none;"/><rect x="0" width="135" y="0" height="74.999997" style="fill:#ffffff;fill-opacity:1;stroke:none;"/><g clip-rule="nonzero" clip-path="url(#2170159ac9)"><path style=" stroke:none;fill-rule:nonzero;fill:#ff914d;fill-opacity:1;" d="M 39.6875 36.125 C 39.6875 37.175781 39.210938 38.121094 38.460938 38.742188 L 30.773438 46.429688 C 29.445312 47.761719 27.285156 47.761719 25.957031 46.429688 C 25.753906 46.226562 25.582031 46.007812 25.441406 45.769531 L 32.46875 38.742188 C 33.214844 38.121094 33.695312 37.175781 33.695312 36.125 C 33.695312 35.03125 33.175781 34.0625 32.375 33.4375 L 25.441406 26.503906 C 25.582031 26.265625 25.753906 26.046875 25.957031 25.84375 C 27.285156 24.511719 29.445312 24.511719 30.773438 25.84375 L 38.371094 33.4375 C 39.171875 34.0625 39.6875 35.03125 39.6875 36.125 "/></g><g clip-rule="nonzero" clip-path="url(#2dd50bff11)"><path style=" stroke:none;fill-rule:nonzero;fill:#fc4c05;fill-opacity:1;" d="M 30.382812 33.902344 L 22.660156 26.179688 C 22.066406 25.585938 21.277344 25.257812 20.4375 25.257812 C 19.597656 25.257812 18.8125 25.585938 18.21875 26.179688 C 17.625 26.773438 17.296875 27.5625 17.296875 28.398438 C 17.296875 29.238281 17.625 30.027344 18.21875 30.621094 L 23.722656 36.125 L 18.191406 41.652344 C 17.597656 42.246094 17.273438 43.035156 17.273438 43.875 C 17.273438 44.714844 17.597656 45.503906 18.191406 46.09375 C 18.785156 46.6875 19.574219 47.015625 20.414062 47.015625 C 21.25 47.015625 22.039062 46.6875 22.632812 46.09375 L 30.382812 38.34375 C 30.976562 37.75 31.300781 36.964844 31.300781 36.125 C 31.300781 35.285156 30.976562 34.496094 30.382812 33.902344 "/></g><g style="fill:#0a0a0a;fill-opacity:1;"><g transform="translate(43.138689, 43.166256)"><path style="stroke:none" d="M 4.203125 0 L 1.65625 0 L 1.65625 -13.890625 L 4.203125 -13.890625 Z M 4.203125 0 "/></g></g><g style="fill:#0a0a0a;fill-opacity:1;"><g transform="translate(48.520884, 43.166256)"><path style="stroke:none" d="M 3.921875 0 L 1.453125 0 L 1.453125 -10.5 L 3.796875 -10.5 L 3.796875 -8.875 C 4.003906 -9.25 4.285156 -9.582031 4.640625 -9.875 C 4.992188 -10.164062 5.40625 -10.394531 5.875 -10.5625 C 6.34375 -10.726562 6.847656 -10.8125 7.390625 -10.8125 C 8.796875 -10.8125 9.847656 -10.363281 10.546875 -9.46875 C 11.253906 -8.570312 11.609375 -7.300781 11.609375 -5.65625 L 11.609375 0 L 9.140625 0 L 9.140625 -5.609375 C 9.140625 -6.648438 8.921875 -7.398438 8.484375 -7.859375 C 8.046875 -8.316406 7.453125 -8.546875 6.703125 -8.546875 C 6.210938 -8.546875 5.753906 -8.421875 5.328125 -8.171875 C 4.910156 -7.929688 4.570312 -7.570312 4.3125 -7.09375 C 4.050781 -6.625 3.921875 -6.046875 3.921875 -5.359375 Z M 3.921875 0 "/></g></g><g style="fill:#0a0a0a;fill-opacity:1;"><g transform="translate(61.032528, 43.166256)"><path style="stroke:none" d="M 6.125 0.3125 C 5.34375 0.3125 4.617188 0.171875 3.953125 -0.109375 C 3.296875 -0.398438 2.722656 -0.800781 2.234375 -1.3125 C 1.753906 -1.820312 1.378906 -2.414062 1.109375 -3.09375 C 0.835938 -3.769531 0.703125 -4.488281 0.703125 -5.25 C 0.703125 -6.007812 0.835938 -6.722656 1.109375 -7.390625 C 1.378906 -8.066406 1.753906 -8.660156 2.234375 -9.171875 C 2.722656 -9.691406 3.296875 -10.09375 3.953125 -10.375 C 4.617188 -10.664062 5.34375 -10.8125 6.125 -10.8125 C 7.03125 -10.8125 7.835938 -10.632812 8.546875 -10.28125 C 9.265625 -9.9375 9.863281 -9.460938 10.34375 -8.859375 C 10.820312 -8.253906 11.160156 -7.566406 11.359375 -6.796875 L 8.84375 -6.796875 C 8.601562 -7.378906 8.238281 -7.8125 7.75 -8.09375 C 7.269531 -8.375 6.734375 -8.515625 6.140625 -8.515625 C 5.753906 -8.515625 5.382812 -8.441406 5.03125 -8.296875 C 4.675781 -8.148438 4.359375 -7.9375 4.078125 -7.65625 C 3.796875 -7.382812 3.570312 -7.046875 3.40625 -6.640625 C 3.238281 -6.234375 3.15625 -5.769531 3.15625 -5.25 C 3.15625 -4.726562 3.238281 -4.265625 3.40625 -3.859375 C 3.570312 -3.460938 3.796875 -3.117188 4.078125 -2.828125 C 4.359375 -2.546875 4.675781 -2.332031 5.03125 -2.1875 C 5.394531 -2.039062 5.765625 -1.96875 6.140625 -1.96875 C 6.734375 -1.96875 7.269531 -2.113281 7.75 -2.40625 C 8.238281 -2.707031 8.601562 -3.1875 8.84375 -3.84375 L 11.34375 -3.84375 C 11.164062 -3.03125 10.835938 -2.3125 10.359375 -1.6875 C 9.878906 -1.0625 9.28125 -0.570312 8.5625 -0.21875 C 7.84375 0.132812 7.03125 0.3125 6.125 0.3125 Z M 6.125 0.3125 "/></g></g><g style="fill:#0a0a0a;fill-opacity:1;"><g transform="translate(72.471691, 43.166256)"><path style="stroke:none" d="M 6.171875 0.3125 C 5.472656 0.3125 4.820312 0.210938 4.21875 0.015625 C 3.613281 -0.171875 3.085938 -0.472656 2.640625 -0.890625 C 2.191406 -1.304688 1.84375 -1.84375 1.59375 -2.5 C 1.34375 -3.164062 1.21875 -3.960938 1.21875 -4.890625 L 1.21875 -10.5 L 3.671875 -10.5 L 3.671875 -4.96875 C 3.671875 -4 3.878906 -3.257812 4.296875 -2.75 C 4.710938 -2.238281 5.332031 -1.984375 6.15625 -1.984375 C 6.988281 -1.984375 7.609375 -2.238281 8.015625 -2.75 C 8.421875 -3.269531 8.625 -4.007812 8.625 -4.96875 L 8.625 -10.5 L 11.09375 -10.5 L 11.09375 -4.890625 C 11.09375 -3.960938 10.96875 -3.164062 10.71875 -2.5 C 10.46875 -1.84375 10.117188 -1.304688 9.671875 -0.890625 C 9.222656 -0.472656 8.703125 -0.171875 8.109375 0.015625 C 7.515625 0.210938 6.867188 0.3125 6.171875 0.3125 Z M 6.171875 0.3125 "/></g></g><g style="fill:#0a0a0a;fill-opacity:1;"><g transform="translate(84.329632, 43.166256)"><path style="stroke:none" d="M 6.21875 0.3125 C 5.425781 0.3125 4.691406 0.171875 4.015625 -0.109375 C 3.335938 -0.398438 2.75 -0.800781 2.25 -1.3125 C 1.757812 -1.820312 1.378906 -2.410156 1.109375 -3.078125 C 0.835938 -3.753906 0.703125 -4.476562 0.703125 -5.25 C 0.703125 -6.019531 0.835938 -6.738281 1.109375 -7.40625 C 1.378906 -8.082031 1.757812 -8.675781 2.25 -9.1875 C 2.75 -9.695312 3.335938 -10.09375 4.015625 -10.375 C 4.691406 -10.664062 5.429688 -10.8125 6.234375 -10.8125 C 7.046875 -10.8125 7.785156 -10.664062 8.453125 -10.375 C 9.128906 -10.09375 9.71875 -9.695312 10.21875 -9.1875 C 10.71875 -8.675781 11.101562 -8.082031 11.375 -7.40625 C 11.644531 -6.738281 11.78125 -6.019531 11.78125 -5.25 C 11.78125 -4.476562 11.644531 -3.753906 11.375 -3.078125 C 11.101562 -2.410156 10.71875 -1.820312 10.21875 -1.3125 C 9.71875 -0.800781 9.128906 -0.398438 8.453125 -0.109375 C 7.773438 0.171875 7.03125 0.3125 6.21875 0.3125 Z M 6.234375 -1.984375 C 6.828125 -1.984375 7.351562 -2.125 7.8125 -2.40625 C 8.28125 -2.6875 8.648438 -3.070312 8.921875 -3.5625 C 9.191406 -4.050781 9.328125 -4.613281 9.328125 -5.25 C 9.328125 -5.882812 9.191406 -6.445312 8.921875 -6.9375 C 8.648438 -7.4375 8.28125 -7.828125 7.8125 -8.109375 C 7.351562 -8.390625 6.828125 -8.53125 6.234375 -8.53125 C 5.648438 -8.53125 5.125 -8.390625 4.65625 -8.109375 C 4.195312 -7.828125 3.832031 -7.4375 3.5625 -6.9375 C 3.289062 -6.445312 3.15625 -5.882812 3.15625 -5.25 C 3.15625 -4.613281 3.289062 -4.050781 3.5625 -3.5625 C 3.832031 -3.070312 4.195312 -2.6875 4.65625 -2.40625 C 5.125 -2.125 5.648438 -1.984375 6.234375 -1.984375 Z M 6.234375 -1.984375 "/></g></g><g style="fill:#0a0a0a;fill-opacity:1;"><g transform="translate(96.350999, 43.166256)"><path style="stroke:none" d="M 3.921875 0 L 1.453125 0 L 1.453125 -10.5 L 3.828125 -10.5 L 3.828125 -8.609375 C 4.066406 -9.179688 4.425781 -9.640625 4.90625 -9.984375 C 5.382812 -10.328125 5.960938 -10.5 6.640625 -10.5 L 7.765625 -10.5 L 7.765625 -8.375 L 6.765625 -8.375 C 6.203125 -8.375 5.707031 -8.238281 5.28125 -7.96875 C 4.851562 -7.695312 4.519531 -7.300781 4.28125 -6.78125 C 4.039062 -6.257812 3.921875 -5.628906 3.921875 -4.890625 Z M 3.921875 0 "/></g></g><g style="fill:#0a0a0a;fill-opacity:1;"><g transform="translate(103.970084, 43.166256)"><path style="stroke:none" d="M 5.65625 0.3125 C 4.945312 0.3125 4.289062 0.171875 3.6875 -0.109375 C 3.082031 -0.398438 2.554688 -0.800781 2.109375 -1.3125 C 1.660156 -1.820312 1.3125 -2.410156 1.0625 -3.078125 C 0.820312 -3.753906 0.703125 -4.476562 0.703125 -5.25 C 0.703125 -6.019531 0.828125 -6.738281 1.078125 -7.40625 C 1.328125 -8.082031 1.671875 -8.675781 2.109375 -9.1875 C 2.554688 -9.695312 3.082031 -10.09375 3.6875 -10.375 C 4.289062 -10.664062 4.941406 -10.8125 5.640625 -10.8125 C 6.492188 -10.8125 7.253906 -10.625 7.921875 -10.25 C 8.585938 -9.882812 9.085938 -9.375 9.421875 -8.71875 L 9.421875 -10.5 L 11.78125 -10.5 L 11.78125 0 L 9.421875 0 L 9.421875 -1.765625 C 9.085938 -1.109375 8.585938 -0.597656 7.921875 -0.234375 C 7.253906 0.128906 6.5 0.3125 5.65625 0.3125 Z M 6.234375 -1.96875 C 6.671875 -1.96875 7.078125 -2.050781 7.453125 -2.21875 C 7.828125 -2.382812 8.15625 -2.613281 8.4375 -2.90625 C 8.71875 -3.207031 8.9375 -3.554688 9.09375 -3.953125 C 9.25 -4.359375 9.328125 -4.789062 9.328125 -5.25 C 9.328125 -5.707031 9.242188 -6.132812 9.078125 -6.53125 C 8.921875 -6.925781 8.703125 -7.273438 8.421875 -7.578125 C 8.148438 -7.878906 7.828125 -8.113281 7.453125 -8.28125 C 7.078125 -8.445312 6.671875 -8.53125 6.234375 -8.53125 C 5.671875 -8.53125 5.15625 -8.394531 4.6875 -8.125 C 4.226562 -7.851562 3.859375 -7.46875 3.578125 -6.96875 C 3.296875 -6.476562 3.15625 -5.90625 3.15625 -5.25 C 3.15625 -4.570312 3.296875 -3.988281 3.578125 -3.5 C 3.859375 -3.007812 4.234375 -2.628906 4.703125 -2.359375 C 5.179688 -2.097656 5.691406 -1.96875 6.234375 -1.96875 Z M 6.234375 -1.96875 "/></g></g></g></svg>