<svg xmlns="http://www.w3.org/2000/svg" xmlns:xlink="http://www.w3.org/1999/xlink" width="164" zoomAndPan="magnify" viewBox="0 0 123 66" height="88" preserveAspectRatio="xMidYMid meet" version="1.2"><defs><clipPath id="5f295a5b7e"><path d="M 37 21.449219 L 45.660156 21.449219 L 45.660156 34.949219 L 37 34.949219 Z M 37 21.449219 "/></clipPath><clipPath id="52bc285c28"><path d="M 32.910156 21.449219 L 41 21.449219 L 41 34.949219 L 32.910156 34.949219 Z M 32.910156 21.449219 "/></clipPath></defs><g id="4eb6c2e9a6"><g clip-rule="nonzero" clip-path="url(#5f295a5b7e)"><path style=" stroke:none;fill-rule:nonzero;fill:#ff914d;fill-opacity:1;" d="M 45.65625 28.050781 C 45.65625 28.648438 45.386719 29.183594 44.960938 29.539062 L 40.589844 33.910156 C 39.832031 34.667969 38.605469 34.667969 37.851562 33.910156 C 37.734375 33.792969 37.636719 33.667969 37.558594 33.535156 L 41.550781 29.539062 C 41.976562 29.183594 42.25 28.648438 42.25 28.050781 C 42.25 27.429688 41.957031 26.878906 41.5 26.523438 L 37.558594 22.582031 C 37.636719 22.445312 37.734375 22.320312 37.851562 22.207031 C 38.605469 21.449219 39.832031 21.449219 40.589844 22.207031 L 44.90625 26.523438 C 45.363281 26.878906 45.65625 27.429688 45.65625 28.050781 "/></g><g clip-rule="nonzero" clip-path="url(#52bc285c28)"><path style=" stroke:none;fill-rule:nonzero;fill:#fc4c05;fill-opacity:1;" d="M 40.367188 26.789062 L 35.976562 22.398438 C 35.636719 22.058594 35.191406 21.875 34.710938 21.875 C 34.234375 21.875 33.789062 22.058594 33.449219 22.398438 C 33.113281 22.734375 32.929688 23.183594 32.929688 23.660156 C 32.929688 24.136719 33.113281 24.585938 33.449219 24.921875 L 36.578125 28.050781 L 33.4375 31.195312 C 33.097656 31.53125 32.914062 31.980469 32.914062 32.457031 C 32.914062 32.933594 33.097656 33.382812 33.4375 33.71875 C 33.773438 34.054688 34.222656 34.242188 34.699219 34.242188 C 35.175781 34.242188 35.621094 34.054688 35.960938 33.71875 L 40.367188 29.3125 C 40.703125 28.976562 40.890625 28.527344 40.890625 28.050781 C 40.890625 27.574219 40.703125 27.125 40.367188 26.789062 "/></g><g style="fill:#0a0a0a;fill-opacity:1;"><g transform="translate(47.876218, 32.805182)"><path style="stroke:none" d="M 1.546875 -7.03125 C 1.265625 -7.03125 1.046875 -7.109375 0.890625 -7.265625 C 0.734375 -7.421875 0.65625 -7.613281 0.65625 -7.84375 C 0.65625 -8.0625 0.734375 -8.25 0.890625 -8.40625 C 1.046875 -8.570312 1.265625 -8.65625 1.546875 -8.65625 C 1.835938 -8.65625 2.0625 -8.570312 2.21875 -8.40625 C 2.375 -8.25 2.453125 -8.0625 2.453125 -7.84375 C 2.453125 -7.613281 2.375 -7.421875 2.21875 -7.265625 C 2.0625 -7.109375 1.835938 -7.03125 1.546875 -7.03125 Z M 2.265625 0 L 0.84375 0 L 0.84375 -6.078125 L 2.265625 -6.078125 Z M 2.265625 0 "/></g></g><g style="fill:#0a0a0a;fill-opacity:1;"><g transform="translate(50.712092, 32.805182)"><path style="stroke:none" d="M 2.265625 0 L 0.84375 0 L 0.84375 -6.078125 L 2.203125 -6.078125 L 2.203125 -5.125 C 2.316406 -5.351562 2.472656 -5.550781 2.671875 -5.71875 C 2.878906 -5.882812 3.117188 -6.015625 3.390625 -6.109375 C 3.671875 -6.210938 3.96875 -6.265625 4.28125 -6.265625 C 5.09375 -6.265625 5.703125 -6.003906 6.109375 -5.484375 C 6.515625 -4.960938 6.71875 -4.226562 6.71875 -3.28125 L 6.71875 0 L 5.28125 0 L 5.28125 -3.25 C 5.28125 -3.851562 5.15625 -4.285156 4.90625 -4.546875 C 4.65625 -4.804688 4.3125 -4.9375 3.875 -4.9375 C 3.59375 -4.9375 3.328125 -4.863281 3.078125 -4.71875 C 2.835938 -4.582031 2.640625 -4.378906 2.484375 -4.109375 C 2.335938 -3.835938 2.265625 -3.503906 2.265625 -3.109375 Z M 2.265625 0 "/></g></g><g style="fill:#0a0a0a;fill-opacity:1;"><g transform="translate(57.950056, 32.805182)"><path style="stroke:none" d="M 3.546875 0.1875 C 3.097656 0.1875 2.679688 0.101562 2.296875 -0.0625 C 1.910156 -0.226562 1.578125 -0.457031 1.296875 -0.75 C 1.015625 -1.050781 0.796875 -1.394531 0.640625 -1.78125 C 0.484375 -2.175781 0.40625 -2.597656 0.40625 -3.046875 C 0.40625 -3.484375 0.484375 -3.894531 0.640625 -4.28125 C 0.796875 -4.664062 1.015625 -5.007812 1.296875 -5.3125 C 1.578125 -5.613281 1.910156 -5.847656 2.296875 -6.015625 C 2.679688 -6.179688 3.097656 -6.265625 3.546875 -6.265625 C 4.066406 -6.265625 4.53125 -6.160156 4.9375 -5.953125 C 5.351562 -5.753906 5.703125 -5.476562 5.984375 -5.125 C 6.265625 -4.769531 6.460938 -4.375 6.578125 -3.9375 L 5.109375 -3.9375 C 4.972656 -4.269531 4.765625 -4.519531 4.484375 -4.6875 C 4.210938 -4.851562 3.898438 -4.9375 3.546875 -4.9375 C 3.328125 -4.9375 3.113281 -4.890625 2.90625 -4.796875 C 2.707031 -4.710938 2.523438 -4.585938 2.359375 -4.421875 C 2.191406 -4.265625 2.0625 -4.066406 1.96875 -3.828125 C 1.875 -3.597656 1.828125 -3.335938 1.828125 -3.046875 C 1.828125 -2.742188 1.875 -2.472656 1.96875 -2.234375 C 2.0625 -2.003906 2.191406 -1.804688 2.359375 -1.640625 C 2.523438 -1.472656 2.710938 -1.347656 2.921875 -1.265625 C 3.128906 -1.179688 3.335938 -1.140625 3.546875 -1.140625 C 3.898438 -1.140625 4.210938 -1.222656 4.484375 -1.390625 C 4.765625 -1.566406 4.972656 -1.84375 5.109375 -2.21875 L 6.5625 -2.21875 C 6.46875 -1.75 6.28125 -1.332031 6 -0.96875 C 5.71875 -0.613281 5.367188 -0.332031 4.953125 -0.125 C 4.535156 0.0820312 4.066406 0.1875 3.546875 0.1875 Z M 3.546875 0.1875 "/></g></g><g style="fill:#0a0a0a;fill-opacity:1;"><g transform="translate(64.567591, 32.805182)"><path style="stroke:none" d="M 3.578125 0.1875 C 3.171875 0.1875 2.789062 0.128906 2.4375 0.015625 C 2.09375 -0.0976562 1.789062 -0.273438 1.53125 -0.515625 C 1.269531 -0.753906 1.066406 -1.0625 0.921875 -1.4375 C 0.773438 -1.820312 0.703125 -2.285156 0.703125 -2.828125 L 0.703125 -6.078125 L 2.125 -6.078125 L 2.125 -2.875 C 2.125 -2.3125 2.242188 -1.878906 2.484375 -1.578125 C 2.722656 -1.285156 3.082031 -1.140625 3.5625 -1.140625 C 4.039062 -1.140625 4.398438 -1.289062 4.640625 -1.59375 C 4.878906 -1.894531 5 -2.320312 5 -2.875 L 5 -6.078125 L 6.421875 -6.078125 L 6.421875 -2.828125 C 6.421875 -2.285156 6.347656 -1.820312 6.203125 -1.4375 C 6.054688 -1.0625 5.851562 -0.753906 5.59375 -0.515625 C 5.332031 -0.273438 5.03125 -0.0976562 4.6875 0.015625 C 4.34375 0.128906 3.972656 0.1875 3.578125 0.1875 Z M 3.578125 0.1875 "/></g></g><g style="fill:#0a0a0a;fill-opacity:1;"><g transform="translate(71.427389, 32.805182)"><path style="stroke:none" d="M 3.59375 0.1875 C 3.132812 0.1875 2.707031 0.101562 2.3125 -0.0625 C 1.925781 -0.226562 1.585938 -0.457031 1.296875 -0.75 C 1.015625 -1.050781 0.796875 -1.394531 0.640625 -1.78125 C 0.484375 -2.175781 0.40625 -2.597656 0.40625 -3.046875 C 0.40625 -3.484375 0.484375 -3.894531 0.640625 -4.28125 C 0.796875 -4.675781 1.015625 -5.019531 1.296875 -5.3125 C 1.585938 -5.613281 1.925781 -5.847656 2.3125 -6.015625 C 2.707031 -6.179688 3.140625 -6.265625 3.609375 -6.265625 C 4.078125 -6.265625 4.503906 -6.179688 4.890625 -6.015625 C 5.285156 -5.847656 5.625 -5.613281 5.90625 -5.3125 C 6.195312 -5.019531 6.421875 -4.675781 6.578125 -4.28125 C 6.734375 -3.894531 6.8125 -3.484375 6.8125 -3.046875 C 6.8125 -2.585938 6.734375 -2.164062 6.578125 -1.78125 C 6.421875 -1.394531 6.195312 -1.050781 5.90625 -0.75 C 5.625 -0.457031 5.285156 -0.226562 4.890625 -0.0625 C 4.492188 0.101562 4.0625 0.1875 3.59375 0.1875 Z M 3.609375 -1.140625 C 3.953125 -1.140625 4.257812 -1.222656 4.53125 -1.390625 C 4.800781 -1.554688 5.007812 -1.78125 5.15625 -2.0625 C 5.3125 -2.34375 5.390625 -2.671875 5.390625 -3.046875 C 5.390625 -3.410156 5.3125 -3.734375 5.15625 -4.015625 C 5.007812 -4.304688 4.800781 -4.53125 4.53125 -4.6875 C 4.257812 -4.851562 3.953125 -4.9375 3.609375 -4.9375 C 3.273438 -4.9375 2.972656 -4.851562 2.703125 -4.6875 C 2.429688 -4.53125 2.21875 -4.304688 2.0625 -4.015625 C 1.90625 -3.734375 1.828125 -3.410156 1.828125 -3.046875 C 1.828125 -2.671875 1.90625 -2.34375 2.0625 -2.0625 C 2.21875 -1.78125 2.429688 -1.554688 2.703125 -1.390625 C 2.972656 -1.222656 3.273438 -1.140625 3.609375 -1.140625 Z M 3.609375 -1.140625 "/></g></g><g style="fill:#0a0a0a;fill-opacity:1;"><g transform="translate(78.381728, 32.805182)"><path style="stroke:none" d="M 2.265625 0 L 0.84375 0 L 0.84375 -6.078125 L 2.21875 -6.078125 L 2.21875 -4.984375 C 2.351562 -5.316406 2.554688 -5.582031 2.828125 -5.78125 C 3.109375 -5.976562 3.445312 -6.078125 3.84375 -6.078125 L 4.5 -6.078125 L 4.5 -4.84375 L 3.921875 -4.84375 C 3.585938 -4.84375 3.296875 -4.765625 3.046875 -4.609375 C 2.804688 -4.453125 2.613281 -4.222656 2.46875 -3.921875 C 2.332031 -3.628906 2.265625 -3.265625 2.265625 -2.828125 Z M 2.265625 0 "/></g></g><g style="fill:#0a0a0a;fill-opacity:1;"><g transform="translate(82.789355, 32.805182)"><path style="stroke:none" d="M 3.265625 0.1875 C 2.859375 0.1875 2.476562 0.101562 2.125 -0.0625 C 1.78125 -0.226562 1.476562 -0.457031 1.21875 -0.75 C 0.957031 -1.050781 0.753906 -1.394531 0.609375 -1.78125 C 0.472656 -2.175781 0.40625 -2.597656 0.40625 -3.046875 C 0.40625 -3.484375 0.476562 -3.894531 0.625 -4.28125 C 0.769531 -4.675781 0.96875 -5.019531 1.21875 -5.3125 C 1.476562 -5.613281 1.78125 -5.847656 2.125 -6.015625 C 2.476562 -6.179688 2.859375 -6.265625 3.265625 -6.265625 C 3.765625 -6.265625 4.207031 -6.15625 4.59375 -5.9375 C 4.976562 -5.71875 5.265625 -5.421875 5.453125 -5.046875 L 5.453125 -6.078125 L 6.8125 -6.078125 L 6.8125 0 L 5.453125 0 L 5.453125 -1.015625 C 5.253906 -0.640625 4.960938 -0.34375 4.578125 -0.125 C 4.203125 0.0820312 3.765625 0.1875 3.265625 0.1875 Z M 3.609375 -1.140625 C 3.859375 -1.140625 4.09375 -1.1875 4.3125 -1.28125 C 4.53125 -1.382812 4.71875 -1.519531 4.875 -1.6875 C 5.039062 -1.851562 5.164062 -2.050781 5.25 -2.28125 C 5.34375 -2.519531 5.390625 -2.773438 5.390625 -3.046875 C 5.390625 -3.304688 5.34375 -3.550781 5.25 -3.78125 C 5.164062 -4.007812 5.039062 -4.207031 4.875 -4.375 C 4.71875 -4.550781 4.53125 -4.6875 4.3125 -4.78125 C 4.09375 -4.882812 3.859375 -4.9375 3.609375 -4.9375 C 3.285156 -4.9375 2.988281 -4.859375 2.71875 -4.703125 C 2.445312 -4.546875 2.226562 -4.320312 2.0625 -4.03125 C 1.90625 -3.75 1.828125 -3.421875 1.828125 -3.046875 C 1.828125 -2.648438 1.90625 -2.304688 2.0625 -2.015625 C 2.226562 -1.734375 2.445312 -1.515625 2.71875 -1.359375 C 3 -1.210938 3.296875 -1.140625 3.609375 -1.140625 Z M 3.609375 -1.140625 "/></g></g></g></svg>